<svg viewBox="0 0 41 41" fill="none" xmlns="http://www.w3.org/2000/svg" class="friends-icon"><g clip-path="url(#clip0_44100_189743)"><rect width="41" height="41" rx="20.5" fill="#EFF1FF"></rect><path d="M36.5955 12.9309C36.5955 16.6606 33.5718 19.6844 29.842 19.6844C26.1106 19.6844 23.0869 16.6606 23.0869 12.9309C23.0869 9.19951 26.1106 6.17578 29.842 6.17578C33.5718 6.17578 36.5955 9.19951 36.5955 12.9309Z" fill="#40196D"></path><path d="M29.9171 30.8311C21.9988 30.8311 15.1895 35.6832 12.1641 42.7516H47.6683C44.6429 35.6832 37.8336 30.8311 29.9171 30.8311Z" fill="#1DC8EF"></path><path d="M27.1361 26.0811L26.4014 31.1686C28.2942 35.203 30.6508 35.203 33.4765 31.1686L32.6435 26.0811H27.1361Z" fill="#A476D4"></path><path opacity="0.671" d="M32.4319 25.0619C32.7282 25.729 32.8027 27.0986 32.9127 27.7318C30.6949 27.8723 29.3388 27.6032 28.8461 26.9243C28.5498 26.5027 28.4753 25.9051 28.6971 25.4141C29.3269 24.3255 31.9155 23.9039 32.4319 25.0619Z" fill="#511B7C"></path><path d="M34.3403 14.8626C34.3132 14.8626 34.2911 14.8439 34.2895 14.8185C34.0372 12.6549 32.1343 10.9297 29.7742 10.9297C27.3989 10.9297 25.4536 12.6464 25.2555 14.8626H25.2217V22.4778H25.2555C25.2555 22.5709 25.2217 22.6962 25.2217 22.7893C25.2217 25.1917 27.2668 27.1268 29.808 27.1268C32.3476 27.1268 34.3927 25.1917 34.3927 22.7893C34.3927 22.664 34.3606 22.5709 34.3606 22.4778H34.3927V14.9117C34.3927 14.8846 34.369 14.8626 34.3403 14.8626Z" fill="#A476D4"></path><path d="M26.1248 18.1579C26.0876 17.6229 25.6067 17.2217 25.0142 17.2217C24.4233 17.2217 23.9425 17.6229 23.9053 18.1579V19.9661C23.9053 19.9999 23.9053 19.9999 23.9053 20.0338C23.9053 20.6026 24.4233 21.0699 25.0514 21.0699C25.6796 21.0699 26.1976 20.6026 26.1976 20.0338C26.1976 20.0101 26.1976 19.9881 26.1976 19.9661L26.1248 18.1579Z" fill="#A476D4"></path><path d="M35.6356 18.1579C35.5983 17.6229 35.1175 17.2217 34.525 17.2217C33.9341 17.2217 33.4533 17.6229 33.416 18.1579V19.9661C33.416 19.9999 33.416 19.9999 33.416 20.0338C33.416 20.6026 33.9341 21.0699 34.5622 21.0699C35.192 21.0699 35.7084 20.6026 35.7084 20.0338C35.7084 20.0101 35.7084 19.9881 35.7084 19.9661L35.6356 18.1579Z" fill="#A476D4"></path><path d="M29.7318 21.6509C29.6709 21.6509 29.6201 21.5985 29.6201 21.5341V17.9957C29.6201 17.9314 29.6709 17.8789 29.7318 17.8789C29.7928 17.8789 29.8436 17.9314 29.8436 17.9957V21.5341C29.8436 21.5985 29.7928 21.6509 29.7318 21.6509Z" fill="#3D0077"></path><path d="M31.1051 19.079C30.9426 19.079 30.8105 18.9672 30.8105 18.8284V18.5389C30.8105 18.4018 30.9426 18.29 31.1051 18.29C31.2677 18.29 31.3997 18.4018 31.3997 18.5389V18.8284C31.3997 18.9672 31.2677 19.079 31.1051 19.079Z" fill="#3D0077"></path><path d="M28.3382 19.102C28.1706 19.102 28.0352 18.9835 28.0352 18.8379V18.5297C28.0352 18.3841 28.1706 18.2656 28.3382 18.2656C28.5041 18.2656 28.6396 18.3841 28.6396 18.5297V18.8379C28.6396 18.9835 28.5041 19.102 28.3382 19.102Z" fill="#3D0077"></path><mask id="mask0_44100_189743" maskUnits="userSpaceOnUse" x="25" y="10" width="10" height="18" style="mask-type: alpha;"><path d="M34.3403 14.8626C34.3132 14.8626 34.2911 14.8439 34.2895 14.8185C34.0372 12.6549 32.1343 10.9297 29.7742 10.9297C27.3989 10.9297 25.4536 12.6464 25.2555 14.8626H25.2217V22.4778H25.2555C25.2555 22.5709 25.2217 22.6962 25.2217 22.7893C25.2217 25.1917 27.2668 27.1268 29.808 27.1268C32.3476 27.1268 34.3927 25.1917 34.3927 22.7893C34.3927 22.664 34.3606 22.5709 34.3606 22.4778H34.3927V14.9117C34.3927 14.8846 34.369 14.8626 34.3403 14.8626Z" fill="#A476D4"></path></mask><g mask="url(#mask0_44100_189743)"><path d="M34.3917 9.90541C34.3917 12.472 32.0875 14.5527 29.2432 14.5527C26.4006 14.5527 24.0947 12.472 24.0947 9.90541C24.0947 7.34048 26.4006 5.25977 29.2432 5.25977C32.0875 5.25977 34.3917 7.34048 34.3917 9.90541Z" fill="#40196D"></path><path d="M26.5111 12.5736C26.5111 14.8862 24.4338 16.7604 21.8723 16.7604C19.3108 16.7604 17.2334 14.8862 17.2334 12.5736C17.2334 10.2609 19.3108 8.38672 21.8723 8.38672C24.4338 8.38672 26.5111 10.2609 26.5111 12.5736Z" fill="#40196D"></path><path d="M42.0063 12.5736C42.0063 14.8862 39.9289 16.7604 37.3674 16.7604C34.8059 16.7604 32.7285 14.8862 32.7285 12.5736C32.7285 10.2609 34.8059 8.38672 37.3674 8.38672C39.9289 8.38672 42.0063 10.2609 42.0063 12.5736Z" fill="#40196D"></path></g><path d="M29.5115 24.7161C29.464 24.7093 29.4234 24.6806 29.4031 24.6348C29.371 24.562 29.4031 24.4791 29.4742 24.4469C30.2598 24.0982 30.9166 23.4616 31.2773 22.6997C31.3094 22.6286 31.3941 22.5981 31.4652 22.632C31.5363 22.6642 31.5668 22.7488 31.5329 22.8199C31.1452 23.6427 30.4358 24.3301 29.5893 24.7059C29.5639 24.7178 29.5368 24.7212 29.5115 24.7161Z" fill="#40196D"></path><path d="M28.9875 26.09L30.6009 26.0781C30.6263 26.4438 31.0157 26.6622 31.7691 26.7367C30.0643 27.3953 28.781 27.3699 27.9209 26.6605C28.6184 26.7232 28.974 26.5335 28.9875 26.09Z" fill="#3D0077"></path><path d="M14.3435 30.7744C7.14264 30.7744 0.948362 34.9792 -1.80566 41.1043H30.4927C27.7405 34.9792 21.5462 30.7744 14.3435 30.7744Z" fill="#48D38A"></path><path d="M16.6995 31.9085C16.3955 33.0517 15.0904 33.7634 13.7816 33.4976C12.4747 33.2319 11.6611 32.0887 11.965 30.9456C12.269 29.8043 13.576 29.0926 14.8829 29.3584C16.1898 29.6241 17.0035 30.7654 16.6995 31.9085Z" fill="#9C7ACD"></path><path d="M16.6811 30.8793L15.68 27.3553L12.5382 26.8984L11.9648 30.9448L16.6811 30.8793Z" fill="#9C7ACD"></path><path d="M15.7253 27.4461C15.8709 27.7246 15.9674 28.2288 16.0238 28.4927C15.0227 28.5164 14.402 28.3872 14.1562 28.1032C14.0088 27.9266 13.7594 27.7974 13.8704 27.5917C14.1817 27.1385 15.4668 26.9619 15.7253 27.4461Z" fill="#511B7C"></path><path d="M14.327 27.7047C11.6713 27.721 9.50523 25.5841 9.48521 22.9283L9.44152 16.8251C9.42332 14.1657 11.5639 11.996 14.2215 11.9796C16.8772 11.9632 19.0433 14.1002 19.0633 16.7559L19.107 22.8574C19.127 25.5167 16.9864 27.6865 14.327 27.7047Z" fill="#9C7ACD"></path><path d="M9.36592 21.8451C8.72338 21.8487 8.20098 21.3336 8.19552 20.6929L8.18459 19.2076C8.18095 18.565 8.69792 18.0408 9.34046 18.0372C9.98119 18.0317 10.5036 18.5486 10.509 19.1894L10.52 20.6747C10.5236 21.3172 10.0066 21.8415 9.36592 21.8451Z" fill="#9C7ACD"></path><path d="M19.325 21.7806C18.6824 21.7843 18.16 21.2692 18.1545 20.6266L18.1436 19.1431C18.1399 18.5006 18.6569 17.9763 19.2994 17.9727C19.9402 17.9672 20.4644 18.4842 20.468 19.1249L20.479 20.6102C20.4844 21.2528 19.9675 21.777 19.325 21.7806Z" fill="#9C7ACD"></path><path d="M8.91503 22.534C8.51531 22.6411 8.10166 22.3987 7.99265 21.9919C7.88364 21.585 8.12024 21.1667 8.51997 21.0596C8.59 21.0409 8.66135 21.0329 8.73363 21.0342C8.74942 21.0348 8.76255 21.0488 8.76255 21.0663C8.76255 21.0838 8.74889 21.097 8.73271 21.0949C8.66666 21.0935 8.60008 21.1018 8.53589 21.119C8.16825 21.2175 7.95076 21.6021 8.05101 21.9762C8.15127 22.3504 8.53188 22.5746 8.89952 22.4761C9.21463 22.3917 9.42763 22.0895 9.40642 21.7594C9.40642 21.7419 9.41822 21.7276 9.43507 21.7263C9.45231 21.7265 9.4665 21.7386 9.4665 21.7561C9.48944 22.1159 9.25786 22.4422 8.91503 22.534Z" fill="#FFC83E" stroke="#FFC83E" stroke-width="0.251611"></path><path d="M20.7908 21.3157C20.6133 21.0083 20.2397 20.8664 19.9012 20.9799C19.8852 20.9856 19.8773 21.0024 19.8816 21.019C19.8873 21.035 19.9041 21.0427 19.9201 21.037C20.2306 20.9327 20.5763 21.0628 20.7394 21.3454C20.9298 21.6751 20.8145 22.0993 20.4825 22.291C20.1504 22.4827 19.7254 22.3704 19.5351 22.0408C19.5018 21.9832 19.4765 21.921 19.4606 21.857C19.4583 21.8408 19.4414 21.8297 19.4246 21.8342C19.4078 21.8386 19.3979 21.8548 19.4022 21.8715C19.4191 21.9403 19.4461 22.0084 19.4824 22.0712C19.6893 22.4297 20.1516 22.5518 20.5127 22.3433C20.8737 22.1349 20.9978 21.6742 20.7908 21.3157Z" fill="#FFC83E" stroke="#FFC83E" stroke-width="0.251611"></path><path d="M14.2549 21.4385C14.1949 21.4258 14.1512 21.3766 14.1493 21.3147L14.1348 19.0667C14.133 18.9957 14.1949 18.9375 14.2695 18.9375C14.3441 18.9375 14.406 18.9939 14.406 19.0649L14.4224 21.3129C14.4224 21.3839 14.3623 21.4422 14.2877 21.4422C14.2768 21.4422 14.2658 21.4422 14.2549 21.4385Z" fill="#40196D"></path><path d="M12.4357 20.0332C12.3028 20.0186 12.2573 19.9586 12.2573 19.8948C12.2555 19.8366 12.2555 19.7784 12.2555 19.7183C12.2537 19.5854 12.2519 19.4507 12.25 19.316C12.2482 19.2468 12.3119 19.185 12.4557 19.1777C12.605 19.1686 12.7087 19.2286 12.7106 19.3033C12.7142 19.4343 12.7142 19.5636 12.716 19.6946C12.716 19.7601 12.7179 19.8275 12.7179 19.893C12.7197 19.9094 12.7215 19.9258 12.716 19.9422C12.6905 20.0095 12.5558 20.0477 12.4357 20.0332Z" fill="#40196D"></path><path d="M16.0544 20.0184C15.9179 20.0039 15.8723 19.9456 15.8723 19.8855C15.8705 19.8273 15.8705 19.7709 15.8687 19.7144C15.8669 19.5852 15.8651 19.456 15.8633 19.3249C15.8633 19.2594 15.927 19.1993 16.0762 19.192C16.2291 19.1847 16.3347 19.243 16.3365 19.314C16.342 19.4396 16.3402 19.5652 16.342 19.6908C16.3438 19.7545 16.3438 19.82 16.3456 19.8837C16.3456 19.8983 16.3474 19.9147 16.342 19.931C16.3165 19.9947 16.1781 20.0312 16.0544 20.0184Z" fill="#40196D"></path><path d="M19.0115 16.7411C18.9976 14.7643 17.9307 12.9878 16.2705 12.0977C16.5498 14.0526 17.4831 15.9511 19.0167 17.4455L19.0115 16.7411Z" fill="#40196D"></path><path d="M16.6542 14.3115C17.4158 13.4851 17.2076 12.1636 16.2223 11.6121C15.4156 11.1607 14.4805 10.904 13.4865 10.9113C10.4575 10.9313 8.01838 13.3704 8.03919 16.3593C8.04613 17.4896 9.11822 18.327 10.232 18.0648C12.7509 17.4733 14.9732 16.139 16.6542 14.3115Z" fill="#40196D"></path><path d="M13.5297 11.8892C14.5199 13.2598 14.2105 15.1711 12.8398 16.1613C11.4692 17.1497 9.5561 16.8402 8.56771 15.4696C7.57932 14.1008 7.88877 12.1877 9.25759 11.1975C10.6282 10.2091 12.5413 10.5185 13.5297 11.8892Z" fill="#40196D"></path><path d="M18.8157 11.6669C18.6646 13.4307 16.8953 14.785 14.864 14.6903C12.8307 14.5957 11.3036 13.0867 11.4546 11.3229C11.6039 9.55725 13.3732 8.20299 15.4064 8.29764C17.4378 8.39412 18.965 9.90127 18.8157 11.6669Z" fill="#40196D"></path><path d="M20.0935 12.8591C20.1535 13.7473 19.5164 14.5155 18.6682 14.5737C17.82 14.632 17.0828 13.9603 17.0227 13.072C16.9608 12.1838 17.5979 11.4174 18.4461 11.3592C19.2944 11.2991 20.0316 11.9726 20.0935 12.8591Z" fill="#40196D"></path><path d="M11.996 23.4863H16.2717C16.421 24.6276 15.7093 25.1792 14.1348 25.1409C12.5584 25.1209 11.8467 24.5694 11.996 23.4863Z" fill="white"></path></g><defs><clipPath id="clip0_44100_189743"><rect width="41" height="41" rx="20.5" fill="white"></rect></clipPath></defs></svg>