<svg viewBox="0 0 63 63" fill="none" xmlns="http://www.w3.org/2000/svg"><circle cx="31.5" cy="31.5" r="31.5" fill="#DBDCE0"></circle><path fill-rule="evenodd" clip-rule="evenodd" d="M18 21C18 19.3431 19.3431 18 21 18H41.3077C42.9645 18 44.3077 19.3431 44.3077 21V41.3077C44.3077 42.9645 42.9645 44.3077 41.3077 44.3077H21C19.3431 44.3077 18 42.9645 18 41.3077V21ZM21.4615 24.4615C21.4615 22.8047 22.8047 21.4615 24.4615 21.4615H38.5385C40.1953 21.4615 41.5385 22.8047 41.5385 24.4615V33.7097C41.5385 35.3569 40.2031 36.6923 38.5558 36.6923H35.6389C35.4527 36.6923 35.3078 36.8523 35.3078 37.0385C35.3078 39.1414 33.603 40.8462 31.5001 40.8462C29.3972 40.8462 27.6924 39.1414 27.6924 37.0385C27.6924 36.8523 27.5475 36.6923 27.3613 36.6923H24.4443C22.797 36.6923 21.4615 35.3569 21.4615 33.7095V24.4615Z" fill="white"></path></svg>